<?xml version="1.0" encoding="UTF-8"?><svg id="Layer_1" xmlns="http://www.w3.org/2000/svg" viewBox="0 0 679.14 679.14"><defs><style>.cls-1{fill:#8d183b;}.cls-2{fill:#ea7624;}.cls-3{fill:#02534e;}.cls-4{fill:#febe2a;}</style></defs><path class="cls-1" d="m357.73,518.71l127.62,127.62c-44.07,20.99-93.4,32.76-145.47,32.81h-.32C152.06,679.14.05,527.16,0,339.67h.04c1.87,5.41,83.92,238.23,339.54,179.95h.25c6.04-.01,12.02-.31,17.91-.9Z"/><path class="cls-4" d="m679.14,339.57c0,52.18-11.77,101.62-32.81,145.79l-127.62-127.62c.59-5.97.9-12.03.9-18.16v-.11c-.06-99.35-80.59-179.88-179.92-179.94v-.02c217.57-40.54,335.57,172.91,339.36,179.89.06.12.1.18.1.18Z"/><path class="cls-2" d="m679.14,339.39h-.1c-3.79-6.98-121.79-220.43-339.36-179.89-.04.01-.08.01-.12.02-99.43,0-180.04,80.61-180.04,180.04C130.44,117.64,339.57,0,339.57,0h.05c187.46.02,339.43,151.94,339.52,339.39Z"/><path class="cls-3" d="m339.57,519.62C83.95,577.89,1.9,345.07.04,339.67c-.02-.06-.04-.1-.04-.1C0,152.03,152.03,0,339.57,0c0,0-209.13,117.64-180.04,339.57v.02c.01,99.42,80.63,180.02,180.04,180.02Z"/><path class="cls-4" d="m679.14,569.98v106.6l-339.51-336.94c15.07-15.07,34.83-22.61,54.58-22.61s39.51,7.54,54.58,22.61l230.35,230.35Z"/><path class="cls-1" d="m679.14,676.58v2.57h-109.16l-230.35-230.35c-30.14-30.14-30.14-79.02,0-109.16l339.51,336.94Z"/></svg>