<?xml version="1.0" encoding="UTF-8"?><svg id="Layer_1" xmlns="http://www.w3.org/2000/svg" viewBox="0 0 1446.41 597.72"><defs><style>.cls-1{fill:none;stroke:#231f20;stroke-miterlimit:10;}.cls-2{fill:#8d183b;}.cls-3{fill:#ea7624;}.cls-4{fill:#02534e;}.cls-5{fill:#febe2a;}</style></defs><path class="cls-2" d="m1173.48,462.39l107.37,107.37c-37.08,17.66-78.58,27.56-122.38,27.6h-.27c-157.75,0-285.64-127.86-285.68-285.6h.03c1.57,4.55,70.6,200.42,285.65,151.39h.21c5.08-.01,10.11-.26,15.07-.76Z"/><path class="cls-5" d="m1443.88,311.69c0,43.9-9.9,85.49-27.6,122.65l-107.37-107.37c.5-5.02.76-10.12.76-15.28v-.09c-.05-83.58-67.8-151.33-151.37-151.38v-.02c183.04-34.11,282.31,145.47,285.5,151.34.05.1.08.15.08.15Z"/><path class="cls-3" d="m1443.88,311.53h-.08c-3.19-5.87-102.46-185.45-285.5-151.34-.03,0-.07,0-.1.02-83.65,0-151.47,67.82-151.47,151.47-24.47-186.71,151.47-285.68,151.47-285.68h.04c157.71.02,285.56,127.83,285.64,285.53Z"/><path class="cls-4" d="m1158.2,463.15c-215.05,49.03-284.08-146.84-285.65-151.39-.02-.05-.03-.08-.03-.08,0-157.78,127.9-285.68,285.68-285.68,0,0-175.94,98.97-151.47,285.68v.02c0,83.64,67.83,151.45,151.47,151.45Z"/><path class="cls-5" d="m1443.88,505.52v89.68l-285.63-283.47c12.68-12.68,29.3-19.02,45.92-19.02s33.24,6.34,45.92,19.02l193.79,193.79Z"/><path class="cls-2" d="m1443.88,595.2v2.16h-91.84l-193.79-193.79c-25.36-25.36-25.36-66.48,0-91.84l285.63,283.47Z"/><line class="cls-1" x1="1446.06" y1="597.37" x2="1443.88" y2="595.21"/></svg>